<svg width="24" height="26" viewBox="0 0 24 26" fill="none" xmlns="http://www.w3.org/2000/svg">
<path d="M19.4055 2C19.9942 2.00005 20.5632 2.2126 21.0078 2.59859C21.4524 2.98458 21.7427 3.51807 21.8255 4.101L21.8462 4.29167L22.9157 21.4028C22.9561 22.0448 22.7417 22.6769 22.3191 23.162C21.8965 23.647 21.2998 23.9459 20.6582 23.9939L20.4749 24H3.52391C2.88066 24 2.26331 23.7465 1.80572 23.2944C1.34813 22.8423 1.08719 22.2281 1.07947 21.5849L1.08313 21.4028L2.15258 4.29167C2.18936 3.70386 2.43712 3.1491 2.85031 2.72941C3.26349 2.30971 3.81431 2.0533 4.40147 2.00733L4.59213 2H19.4055ZM15.6655 6.88889C15.3661 6.88893 15.0772 6.99884 14.8535 7.19776C14.6297 7.39669 14.4868 7.6708 14.4518 7.96811L14.4432 8.11111C14.4432 8.75942 14.1857 9.38117 13.7273 9.83959C13.2689 10.298 12.6471 10.5556 11.9988 10.5556C11.3505 10.5556 10.7287 10.298 10.2703 9.83959C9.8119 9.38117 9.55436 8.75942 9.55436 8.11111C9.55436 7.78696 9.42559 7.47608 9.19638 7.24687C8.96716 7.01766 8.65629 6.88889 8.33213 6.88889C8.00798 6.88889 7.6971 7.01766 7.46789 7.24687C7.23868 7.47608 7.10991 7.78696 7.10991 8.11111C7.10991 9.40772 7.62499 10.6512 8.54183 11.5681C9.45868 12.4849 10.7022 13 11.9988 13C13.2954 13 14.5389 12.4849 15.4558 11.5681C16.3726 10.6512 16.8877 9.40772 16.8877 8.11111C16.8877 7.78696 16.7589 7.47608 16.5297 7.24687C16.3005 7.01766 15.9896 6.88889 15.6655 6.88889Z" fill="currentColor"/>
</svg>
