<svg width="24" height="24" viewBox="0 0 24 24" fill="none" xmlns="http://www.w3.org/2000/svg">
<path fill-rule="evenodd" clip-rule="evenodd" d="M18.6233 5.0634C18.8715 5.2289 19.0438 5.48623 19.1023 5.77878C19.1609 6.07134 19.1008 6.37515 18.9353 6.6234L11.4353 17.8734C11.3429 18.0118 11.221 18.1279 11.0783 18.2135C10.9357 18.2991 10.7758 18.3519 10.6102 18.3683C10.4447 18.3847 10.2775 18.3641 10.1209 18.3081C9.96423 18.2521 9.82194 18.162 9.70428 18.0444L5.20428 13.5444C5.00556 13.3311 4.89738 13.0491 4.90252 12.7576C4.90766 12.4662 5.02573 12.1881 5.23185 11.982C5.43797 11.7758 5.71605 11.6578 6.0075 11.6526C6.29895 11.6475 6.58102 11.7557 6.79428 11.9544L10.3238 15.4839L17.0633 5.3739C17.229 5.12591 17.4865 4.9539 17.779 4.89567C18.0715 4.83745 18.3752 4.89777 18.6233 5.0634Z" fill="currentColor"/>
</svg>
