<svg width="9" height="16" viewBox="0 0 9 16" fill="none" xmlns="http://www.w3.org/2000/svg">
<path d="M4.2666 0C4.59766 0.000371081 4.86621 0.268468 4.86621 0.599609V2.13184C6.24084 2.34365 7.11482 2.92273 7.65332 3.52246C7.95103 3.85416 8.13584 4.18057 8.24707 4.42871C8.30266 4.55282 8.3407 4.65909 8.36523 4.7373C8.37747 4.77634 8.38618 4.80928 8.39258 4.83398C8.39574 4.84619 8.39844 4.8569 8.40039 4.86523C8.40134 4.8692 8.40264 4.87293 8.40332 4.87598C8.40365 4.87751 8.40403 4.87962 8.4043 4.88086V4.88281L8.40527 4.88379L8.41797 5.00488C8.4196 5.28376 8.22484 5.53473 7.94141 5.59473C7.6174 5.66288 7.29898 5.45577 7.23047 5.13184V5.13086C7.2286 5.12387 7.22551 5.11204 7.2207 5.09668C7.20879 5.05868 7.18684 4.99697 7.15234 4.91992C7.08304 4.76524 6.96209 4.54859 6.76074 4.32422C6.36931 3.8882 5.62693 3.36961 4.22168 3.26562V3.26465C4.04786 3.25264 3.87498 3.24689 3.7041 3.24707H3.70312C3.17791 3.24714 2.52957 3.47307 2.01562 3.87695C1.50495 4.27841 1.19922 4.79392 1.19922 5.34082C1.19928 5.92091 1.41363 6.28223 1.84766 6.57129C2.33347 6.89457 3.10334 7.12832 4.20996 7.31738C5.36312 7.51444 6.4219 7.84061 7.20508 8.39062C8.01795 8.96165 8.5332 9.77821 8.5332 10.8662C8.53307 11.9865 7.91791 12.7825 7.12598 13.2705C6.45378 13.6846 5.63417 13.8941 4.86621 13.9424V15.4004C4.86609 15.7314 4.59758 16.0006 4.2666 16.001C3.9353 16.001 3.66613 15.7317 3.66602 15.4004V13.8857C2.49636 13.6964 1.66646 13.1383 1.11816 12.5908C0.804259 12.2772 0.58177 11.9673 0.4375 11.7344C0.365479 11.6181 0.311935 11.5193 0.275391 11.4473C0.257172 11.4114 0.24256 11.3813 0.232422 11.3594C0.22747 11.3487 0.223773 11.339 0.220703 11.332C0.219267 11.3288 0.217831 11.3256 0.216797 11.3232C0.216316 11.3221 0.215322 11.3203 0.214844 11.3193V11.3184L0.213867 11.3174C0.0849195 11.0122 0.228042 10.6603 0.533203 10.5312C0.83808 10.4026 1.18914 10.5451 1.31836 10.8496H1.31934L1.31836 10.8486V10.8477C1.31899 10.8489 1.32055 10.8517 1.32227 10.8555C1.32661 10.8649 1.33447 10.8821 1.3457 10.9043C1.3685 10.9492 1.40565 11.018 1.45801 11.1025C1.56379 11.2733 1.73015 11.5058 1.96582 11.7412C2.43243 12.2072 3.17379 12.6916 4.29688 12.749H4.29883C4.36929 12.7529 4.44349 12.7528 4.52148 12.7529C5.21608 12.7529 5.95363 12.5831 6.49609 12.249C7.02033 11.926 7.33289 11.4774 7.33301 10.8662C7.33301 10.2224 7.05479 9.75086 6.51562 9.37207C5.94646 8.9724 5.09257 8.68537 4.00781 8.5C2.87703 8.30681 1.89176 8.04226 1.18262 7.57031C0.421761 7.06358 6.49342e-05 6.33101 0 5.34082C0 4.31812 0.570874 3.48659 1.27441 2.93359C1.96416 2.39153 2.8516 2.05683 3.66602 2.04688V0.599609C3.66602 0.268239 3.93523 0 4.2666 0Z" fill="black"/>
</svg>
