<svg width="24" height="24" viewBox="0 0 24 24" fill="none" xmlns="http://www.w3.org/2000/svg">
<path d="M21 4V20" stroke="currentColor" stroke-width="1.5" stroke-linecap="round" stroke-linejoin="round"/>
<path d="M6.02898 4.28502C5.72548 4.10292 5.37911 4.00462 5.02521 4.00016C4.67131 3.99569 4.32256 4.08522 4.01457 4.2596C3.70659 4.43398 3.45039 4.68697 3.27214 4.99274C3.09389 5.2985 2.99997 5.64609 2.99998 6.00002V18C2.99997 18.3539 3.09389 18.7015 3.27214 19.0073C3.45039 19.3131 3.70659 19.5661 4.01457 19.7404C4.32256 19.9148 4.67131 20.0043 5.02521 19.9999C5.37911 19.9954 5.72548 19.8971 6.02898 19.715L16.026 13.717C16.3227 13.5397 16.5685 13.2885 16.7392 12.9879C16.91 12.6873 16.9999 12.3476 17.0002 12.0019C17.0005 11.6562 16.9112 11.3163 16.741 11.0154C16.5707 10.7145 16.3254 10.4628 16.029 10.285L6.02898 4.28502Z" stroke="currentColor" stroke-width="1.5" stroke-linecap="round" stroke-linejoin="round"/>
</svg>
