<svg width="25" height="26" viewBox="0 0 25 26" fill="none" xmlns="http://www.w3.org/2000/svg">
<path d="M8.83506 2.00004C6.76331 1.98908 4.74638 3.9841 5.66715 6.46142H2.19232C1.61088 6.46142 1.05326 6.6924 0.642116 7.10354C0.230976 7.51468 0 8.0723 0 8.65374V10.8461C0 11.1368 0.115488 11.4156 0.321058 11.6212C0.526628 11.8267 0.805441 11.9422 1.09616 11.9422H10.9616H13.1539H23.0194C23.3101 11.9422 23.5889 11.8267 23.7945 11.6212C24.0001 11.4156 24.1155 11.1368 24.1155 10.8461V8.65374C24.1155 8.0723 23.8846 7.51468 23.4734 7.10354C23.0623 6.6924 22.5047 6.46142 21.9232 6.46142H18.4484C19.7309 2.87697 14.9078 0.344842 12.6826 3.43602L12.0578 4.2691L11.433 3.41409C10.7424 2.43851 9.78872 2.01101 8.83506 2.00004ZM8.76929 4.2691C9.74487 4.2691 10.2381 5.45295 9.54756 6.14353C8.85698 6.83412 7.67313 6.34084 7.67313 5.36526C7.67313 5.07454 7.78862 4.79573 7.99419 4.59016C8.19976 4.38459 8.47857 4.2691 8.76929 4.2691ZM15.3463 4.2691C16.3218 4.2691 16.8151 5.45295 16.1245 6.14353C15.4339 6.83412 14.2501 6.34084 14.2501 5.36526C14.2501 5.07454 14.3656 4.79573 14.5712 4.59016C14.7767 4.38459 15.0555 4.2691 15.3463 4.2691ZM1.09616 13.0384V21.8077C1.09616 22.3891 1.32714 22.9467 1.73828 23.3579C2.14942 23.769 2.70704 24 3.28848 24H20.8271C21.4085 24 21.9661 23.769 22.3773 23.3579C22.7884 22.9467 23.0194 22.3891 23.0194 21.8077V13.0384H13.1539H10.9616H1.09616Z" fill="currentColor"/>
</svg>
