<?xml version="1.0" encoding="UTF-8"?>
<svg version="1.1" xmlns="http://www.w3.org/2000/svg" width="200" height="200">
<path d="M0 0 C12.93752617 10.69733707 20.81389759 24.35323497 23 41 C23.34824564 45.67266298 23.26303662 50.32379334 23 55 C24.216875 55.2475 25.43375 55.495 26.6875 55.75 C31.74822021 57.03753306 34.7539855 59.05685496 37.61146545 63.51306152 C39.44947936 68.12874893 39.42782756 72.1181108 39.40405273 77.04101562 C39.41091599 78.0368718 39.41777924 79.03272797 39.42485046 80.0587616 C39.44311009 83.34140389 39.43928243 86.62356795 39.43359375 89.90625 C39.43815555 92.19258784 39.44346112 94.47892431 39.44947815 96.76525879 C39.45840734 101.55336077 39.45598774 106.34129592 39.44604492 111.12939453 C39.43454872 117.26297579 39.45477823 123.3959819 39.48396206 129.52948761 C39.50231263 134.24956921 39.50203395 138.96951265 39.49632454 143.68962097 C39.49617122 145.95103259 39.50222405 148.21245351 39.51461601 150.47383118 C39.52950413 153.63591569 39.51886459 156.79693311 39.50170898 159.95898438 C39.51621094 161.35717659 39.51621094 161.35717659 39.53100586 162.78361511 C39.46769094 168.36067764 38.73956194 171.58665926 35 176 C30.79453929 179.70481063 28.49903706 181.12174571 22.94049072 181.14717102 C21.86940063 181.15432632 20.79831055 181.16148163 19.69476318 181.16885376 C18.51448547 181.17154266 17.33420776 181.17423157 16.11816406 181.17700195 C14.87905273 181.18357315 13.63994141 181.19014435 12.36328125 181.19691467 C8.24739341 181.21668579 4.13154459 181.2283188 0.015625 181.23828125 C-1.40139028 181.24232872 -2.81840535 181.24644564 -4.23542023 181.25063133 C-10.89360373 181.26968596 -17.55177614 181.28391555 -24.20998168 181.2922433 C-31.89386052 181.30201262 -39.57745106 181.32832269 -47.26122832 181.36874419 C-53.2010185 181.39891786 -59.14072611 181.41371341 -65.08059144 181.41702431 C-68.62774837 181.41937373 -72.1745974 181.42831909 -75.72167206 181.45348549 C-79.68140354 181.4811251 -83.64075677 181.47693119 -87.60058594 181.4699707 C-89.35885712 181.48918579 -89.35885712 181.48918579 -91.15264893 181.50878906 C-97.41481012 181.46861488 -101.27042592 181.26076478 -106 177 C-109.33396599 173.21549806 -111.11683863 170.88650473 -111.15390015 165.85835266 C-111.16250061 164.99064743 -111.17110107 164.1229422 -111.17996216 163.22894287 C-111.18422211 162.27465393 -111.18848206 161.32036499 -111.19287109 160.3371582 C-111.20104858 159.33373886 -111.20922607 158.33031952 -111.21765137 157.29649353 C-111.24253169 153.96459556 -111.25902935 150.6327403 -111.2734375 147.30078125 C-111.27876118 146.16396597 -111.28408485 145.02715069 -111.28956985 143.85588646 C-111.31631458 137.83728077 -111.33568412 131.8186959 -111.35009766 125.80004883 C-111.36673662 119.58346995 -111.41150498 113.36742212 -111.4624691 107.15104389 C-111.49613167 102.37175388 -111.50767415 97.59258995 -111.51332474 92.81319237 C-111.52004131 90.52187231 -111.53527378 88.23056067 -111.55921555 85.93935585 C-111.59084344 82.72906955 -111.59090669 79.52021574 -111.58349609 76.30981445 C-111.59990143 75.36564667 -111.61630676 74.42147888 -111.63320923 73.44869995 C-111.57250275 67.01348207 -110.2681168 63.85052202 -106 59 C-102.41723077 56.24402367 -99.41041798 55.66732597 -95 55 C-95.04640625 54.175 -95.0928125 53.35 -95.140625 52.5 C-95.65584327 36.01301539 -91.58862487 21.30753748 -80.5625 8.6875 C-79.05986712 7.10748902 -77.54044601 5.54316764 -76 4 C-75.43539062 3.42378906 -74.87078125 2.84757812 -74.2890625 2.25390625 C-54.35335861 -16.46620594 -21.25806337 -15.46040972 0 0 Z M-59.953125 24.578125 C-67.89689634 33.97724376 -69 42.85900064 -69 55 C-47.22 55 -25.44 55 -3 55 C-3 41.23905586 -3.89630513 33.04620167 -13.5546875 23.1328125 C-21.60704682 16.10950868 -28.91980337 14.61106771 -39.39453125 14.73046875 C-47.74824298 15.35496074 -53.91498011 18.88256989 -59.953125 24.578125 Z " fill="#000000" transform="translate(136,15)"/>
</svg>
