<svg width="24" height="24" viewBox="0 0 24 24" fill="none" xmlns="http://www.w3.org/2000/svg">
<path d="M22 16.92V19.92C22.0011 20.1985 21.9441 20.4742 21.8325 20.7293C21.7209 20.9845 21.5573 21.2136 21.3521 21.4019C21.1468 21.5901 20.9046 21.7335 20.6407 21.8227C20.3769 21.9119 20.0974 21.9451 19.82 21.92C16.7428 21.5856 13.787 20.5341 11.19 18.85C8.77382 17.3147 6.72533 15.2662 5.19 12.85C3.49998 10.2412 2.44824 7.27099 2.12 4.18C2.09501 3.90347 2.12788 3.62476 2.21649 3.36162C2.3051 3.09849 2.44748 2.85669 2.63519 2.65162C2.8229 2.44655 3.05131 2.28271 3.30613 2.17052C3.56096 2.05833 3.83628 2.00026 4.115 2H7.115C7.60445 1.99522 8.08206 2.16708 8.46779 2.48353C8.85352 2.79999 9.1219 3.23945 9.215 3.72C9.38952 4.68007 9.688 5.60909 10.105 6.48C10.2397 6.78704 10.2863 7.12736 10.2393 7.46165C10.1923 7.79595 10.0534 8.11023 9.84 8.37L8.635 9.575C10.1 12.0763 12.1637 14.14 14.665 15.605L15.87 14.4C16.1298 14.1866 16.4441 14.0477 16.7784 14.0007C17.1127 13.9537 17.453 14.0003 17.76 14.135C18.6309 14.552 19.5599 14.8505 20.52 15.025C21.0056 15.1181 21.4494 15.3916 21.7658 15.7835C22.0823 16.1754 22.2515 16.6591 22.245 17.155" stroke="currentColor" stroke-width="1.5" stroke-linecap="round" stroke-linejoin="round"/>
</svg>