<svg width="24" height="24" viewBox="0 0 24 24" fill="none" xmlns="http://www.w3.org/2000/svg">
<path d="M17.9708 4.28502C18.2743 4.10292 18.6207 4.00462 18.9746 4.00016C19.3285 3.99569 19.6772 4.08522 19.9852 4.2596C20.2932 4.43398 20.5494 4.68697 20.7277 4.99274C20.9059 5.2985 20.9998 5.64609 20.9998 6.00002V18C20.9998 18.3539 20.9059 18.7015 20.7277 19.0073C20.5494 19.3131 20.2932 19.5661 19.9852 19.7404C19.6772 19.9148 19.3285 20.0043 18.9746 19.9999C18.6207 19.9954 18.2743 19.8971 17.9708 19.715L7.97384 13.717C7.67707 13.5397 7.43132 13.2885 7.26058 12.9879C7.08984 12.6873 6.99994 12.3476 6.99963 12.0019C6.99933 11.6562 7.08864 11.3163 7.25886 11.0154C7.42907 10.7145 7.67438 10.4628 7.97084 10.285L17.9708 4.28502Z" stroke="currentColor" stroke-width="1.5" stroke-linecap="round" stroke-linejoin="round"/>
<path d="M3.00002 20V4" stroke="currentColor" stroke-width="1.5" stroke-linecap="round" stroke-linejoin="round"/>
</svg>
