<svg width="24" height="24" viewBox="0 0 24 24" fill="none" xmlns="http://www.w3.org/2000/svg">
<path fill-rule="evenodd" clip-rule="evenodd" d="M12.75 2.28647C12.5437 2.10199 12.2767 2 12 2C11.7233 2 11.4563 2.10199 11.25 2.28647C9.2228 4.1049 6.69103 5.2646 3.99 5.61197C3.72482 5.64606 3.48045 5.77348 3.30068 5.97138C3.12092 6.16929 3.01751 6.42475 3.009 6.69197C3.003 6.86697 3 7.04397 3 7.22297C3 13.301 6.4425 18.5735 11.4795 21.1985C11.6402 21.2823 11.8188 21.3261 12 21.3261C12.1812 21.3261 12.3598 21.2823 12.5205 21.1985C15.1577 19.8262 17.3527 17.7355 18.8516 15.1681C20.3505 12.6008 21.0923 9.66164 20.991 6.69047C20.9821 6.42351 20.8786 6.16841 20.6988 5.97081C20.5191 5.77322 20.2749 5.64602 20.01 5.61197C17.3091 5.26503 14.7774 4.10586 12.75 2.28797M16.26 10.544C16.4416 10.309 16.5229 10.0118 16.4862 9.71719C16.4496 9.42254 16.2979 9.15432 16.0644 8.97102C15.8308 8.78771 15.5342 8.70419 15.2393 8.73865C14.9444 8.77311 14.675 8.92276 14.49 9.15497L11.091 13.478L9.357 11.993C9.24577 11.8911 9.1152 11.8127 8.97305 11.7623C8.8309 11.7119 8.68007 11.6906 8.52952 11.6997C8.37898 11.7088 8.2318 11.748 8.09673 11.8151C7.96166 11.8822 7.84146 11.9758 7.74327 12.0903C7.64509 12.2047 7.57093 12.3378 7.5252 12.4815C7.47946 12.6252 7.46309 12.7767 7.47706 12.9268C7.49103 13.077 7.53505 13.2228 7.6065 13.3557C7.67796 13.4885 7.77539 13.6056 7.893 13.7L10.518 15.95C10.6332 16.0488 10.7673 16.1233 10.9121 16.1689C11.0568 16.2146 11.2094 16.2304 11.3604 16.2156C11.5115 16.2007 11.658 16.1555 11.7911 16.0825C11.9242 16.0095 12.0412 15.9103 12.135 15.791L16.26 10.544Z" fill="currentColor"/>
</svg>
