<svg width="24" height="24" viewBox="0 0 24 24" fill="none" xmlns="http://www.w3.org/2000/svg">
<path d="M11.0001 4.70203C10.9999 4.56274 10.9584 4.42663 10.8809 4.31088C10.8035 4.19514 10.6934 4.10493 10.5647 4.05166C10.436 3.99838 10.2944 3.98442 10.1578 4.01154C10.0212 4.03866 9.89566 4.10564 9.79707 4.20403L6.41307 7.58703C6.28248 7.7184 6.12711 7.82256 5.95597 7.89345C5.78482 7.96435 5.60132 8.00057 5.41607 8.00003H3.00007C2.73486 8.00003 2.4805 8.10539 2.29297 8.29292C2.10543 8.48046 2.00007 8.73481 2.00007 9.00003V15C2.00007 15.2652 2.10543 15.5196 2.29297 15.7071C2.4805 15.8947 2.73486 16 3.00007 16H5.41607C5.60132 15.9995 5.78482 16.0357 5.95597 16.1066C6.12711 16.1775 6.28248 16.2817 6.41307 16.413L9.79607 19.797C9.89467 19.8958 10.0204 19.9631 10.1573 19.9904C10.2942 20.0177 10.4361 20.0037 10.565 19.9503C10.6939 19.8968 10.8041 19.8063 10.8816 19.6902C10.959 19.5741 11.0003 19.4376 11.0001 19.298V4.70203Z" stroke="currentColor" stroke-width="1.5" stroke-linecap="round" stroke-linejoin="round"/>
<path d="M15.9999 9C16.649 9.86548 16.9999 10.9181 16.9999 12C16.9999 13.0819 16.649 14.1345 15.9999 15" stroke="currentColor" stroke-width="1.5" stroke-linecap="round" stroke-linejoin="round"/>
<path d="M19.364 18.3642C20.1998 17.5285 20.8627 16.5363 21.315 15.4444C21.7673 14.3525 22.0001 13.1821 22.0001 12.0002C22.0001 10.8183 21.7673 9.64799 21.315 8.55605C20.8627 7.46412 20.1998 6.47196 19.364 5.63623" stroke="currentColor" stroke-width="1.5" stroke-linecap="round" stroke-linejoin="round"/>
</svg>
