<svg width="21" height="15" viewBox="0 0 21 15" fill="none" xmlns="http://www.w3.org/2000/svg">
<path d="M2.25 0C1.65326 0 1.08097 0.237053 0.65901 0.65901C0.237053 1.08097 0 1.65326 0 2.25V3H21V2.25C21 1.65326 20.7629 1.08097 20.341 0.65901C19.919 0.237053 19.3467 0 18.75 0H2.25Z" fill="currentColor"/>
<path fill-rule="evenodd" clip-rule="evenodd" d="M21 6H0V12.75C0 13.3467 0.237053 13.919 0.65901 14.341C1.08097 14.7629 1.65326 15 2.25 15H18.75C19.3467 15 19.919 14.7629 20.341 14.341C20.7629 13.919 21 13.3467 21 12.75V6ZM3 10.875C3 10.5766 3.11853 10.2905 3.3295 10.0795C3.54048 9.86853 3.82663 9.75 4.125 9.75H4.875C5.17337 9.75 5.45952 9.86853 5.6705 10.0795C5.88147 10.2905 6 10.5766 6 10.875C6 11.1734 5.88147 11.4595 5.6705 11.6705C5.45952 11.8815 5.17337 12 4.875 12H4.125C3.82663 12 3.54048 11.8815 3.3295 11.6705C3.11853 11.4595 3 11.1734 3 10.875ZM8.625 9.75C8.32663 9.75 8.04048 9.86853 7.8295 10.0795C7.61853 10.2905 7.5 10.5766 7.5 10.875C7.5 11.1734 7.61853 11.4595 7.8295 11.6705C8.04048 11.8815 8.32663 12 8.625 12H12.375C12.6734 12 12.9595 11.8815 13.1705 11.6705C13.3815 11.4595 13.5 11.1734 13.5 10.875C13.5 10.5766 13.3815 10.2905 13.1705 10.0795C12.9595 9.86853 12.6734 9.75 12.375 9.75H8.625Z" fill="currentColor"/>
</svg>
